<svg width="260" height="84" viewBox="0 0 260 84" fill="none" xmlns="http://www.w3.org/2000/svg">
<path d="M260 65.4847L130 84L0 65.4847V0L260 0V65.4847Z" fill="#090909"/>
<path fill-rule="evenodd" clip-rule="evenodd" d="M180.742 42.6297C177.427 48.1337 171.115 47.9952 172.731 41.14C172.941 40.258 173.511 38.0327 174.208 35.3143L174.208 35.3129C174.475 34.2717 174.76 33.1581 175.051 32.02C173.941 32.01 173.391 31.01 172.741 29.54C173.126 29.6256 174.053 29.4988 175.158 29.3477L175.159 29.3476C175.345 29.3221 175.537 29.2959 175.731 29.27C176.941 24.37 178.031 19.74 177.931 19C181.359 20.2208 180.942 21.7237 180.481 23.3847C180.451 23.4924 180.42 23.6009 180.391 23.71C180.165 24.5517 179.903 25.4604 179.629 26.4141L179.628 26.4152C179.394 27.2286 179.151 28.0748 178.911 28.94C179.808 28.9632 180.197 29.7453 180.664 30.6858L180.664 30.686C180.802 30.9621 180.946 31.2518 181.111 31.54C180.614 31.4903 179.684 31.5779 178.686 31.672L178.685 31.6721C178.479 31.6915 178.27 31.7112 178.061 31.73C177.041 35.11 176.081 38.47 175.621 40.89C175.111 43.51 175.351 44.29 176.151 44.44C177.284 44.6428 179.544 42.6675 180.731 40.1676C180.809 39.5445 180.943 38.8629 181.141 38.1199C182.421 33.2999 185.751 30.2599 188.151 30.0399C190.941 29.7899 192.241 32.5499 191.101 37.2499C189.921 42.1399 187.181 45.4599 184.541 45.6699C182.717 45.817 181.138 44.9279 180.742 42.6297ZM91.1212 38.59C87.9612 50.8 85.0512 54.41 81.2012 54.76C78.7812 54.98 77.5812 53.34 77.2612 50.88C76.0712 52.98 74.1812 55.42 71.7612 55.64C67.0612 56.06 67.7612 50.74 68.6312 46.81C68.7798 46.1466 69.0166 45.1323 69.3053 43.8955C69.8913 41.3855 70.6911 37.9592 71.4012 34.69C70.6812 34.67 69.8512 34.52 69.4212 34.09C70.5412 32.27 72.6312 26.52 72.8712 24.92L73.0312 24.96C76.2112 25.95 77.0512 26.4 75.9612 31.01C75.1922 34.2753 74.4179 37.2398 73.7354 39.8529L73.7354 39.853L73.7354 39.853C71.6044 48.0117 70.3682 52.7448 72.9812 52.51C75.4012 52.29 76.9212 48.45 77.5312 46.23C77.6012 45.81 77.6912 45.41 77.7912 44.99C77.903 44.5257 78.0317 43.9929 78.1735 43.4064L78.1737 43.4054L78.1737 43.4054C79.6561 37.2713 82.5563 25.2706 82.1912 24.44C85.4912 25.33 86.5512 25.71 85.3912 29.91C85.1929 30.6269 84.8967 31.6192 84.5476 32.789C82.5736 39.4034 78.9067 51.6906 81.6512 51.92C85.0897 52.2023 87.1893 42.9446 88.3005 38.0449C88.4885 37.2162 88.6482 36.5122 88.7812 36C89.9312 31.58 91.1412 25.52 90.5412 24.41C94.5157 25.8838 94.2192 26.9642 92.6482 32.6902L92.6482 32.6902C92.2152 34.2687 91.6852 36.2001 91.1212 38.59ZM101.619 49.6966C99.9075 52.1069 97.1779 53.9114 94.4112 53.77C92.0412 53.65 89.6012 51.49 90.9012 46.53C92.2812 41.26 96.4012 37.76 99.1412 38.18C103.341 38.8 100.451 46.7 93.7912 48.24C93.7612 50.12 94.5412 51.11 95.6912 51.42C97.5444 51.927 100.811 49.4387 102.012 46.8405C102.028 46.7711 102.044 46.7009 102.061 46.63C102.333 45.4949 102.771 43.7699 103.274 41.7862C104.905 35.364 107.224 26.2288 106.811 25.61C111.461 26.82 110.901 28.84 109.641 32.41C108.881 34.55 106.091 42.25 106.091 42.25C106.044 42.4098 105.995 42.5729 105.946 42.7388L105.946 42.7389C104.995 45.9357 103.746 50.1342 104.991 50.6C105.621 50.8463 107.715 49.8776 109.201 46.3884C109.258 46.0323 109.335 45.6686 109.431 45.3C110.641 40.62 114.401 36.38 117.151 36.44C122.101 36.55 119.941 41.12 118.761 41.97C117.581 42.82 116.411 42.24 116.161 41.9C117.731 40.21 117.661 38.28 116.921 38.21C115.661 38.57 113.401 41.79 112.651 44.99C112.081 47.42 112.171 49.52 113.831 49.89C115.76 50.3058 118.723 48.5217 120.342 45.1056C120.422 44.6201 120.534 44.102 120.681 43.55C121.961 38.73 125.291 35.69 127.691 35.47C130.471 35.22 131.771 37.98 130.641 42.68C129.461 47.57 126.721 50.89 124.081 51.1C122.19 51.2524 120.563 50.2914 120.243 47.8015C118.082 51.0029 114.969 52.4015 112.391 52.12C110.442 51.9125 109.418 50.6374 109.15 48.8592C107.825 51.2802 105.945 52.619 104.291 52.77C102.734 52.9122 101.597 52.1465 101.619 49.6966ZM93.9612 46.67L93.9412 46.75C97.4612 45.44 99.8812 40.38 97.9212 39.92C96.4712 40.63 94.5112 43.74 93.9612 46.67ZM124.461 48.99C123.181 49.11 122.791 46.74 123.621 43.7C124.731 39.58 126.581 37.54 127.411 37.46C128.801 37.34 129.111 39.47 128.261 43.06C127.421 46.59 125.461 48.9 124.461 48.99ZM152.25 45.0853C150.922 47.7185 148.469 49.2524 147.021 49.1L146.967 49.0941L146.9 49.0872C145.865 48.9809 143.785 48.7672 145.091 43.57C145.45 42.1274 145.852 40.7639 146.193 39.6047C146.785 37.5978 147.195 36.2032 146.891 36.07C145.981 35.68 143.161 39.84 142.001 42.96C140.601 47.6 140.161 49.46 140.281 49.65C140.156 49.5912 140.034 49.5357 139.917 49.4824C138.428 48.8014 137.694 48.4659 138.361 45.8601C138.637 44.7965 139.013 43.5766 139.382 42.3839L139.382 42.3835L139.382 42.3833C140.271 39.5056 141.111 36.7859 140.361 36.8C139.301 36.81 135.721 43.6101 134.651 46.3701C134.041 48.4701 133.611 50.0601 133.701 50.2701C133.537 50.1403 133.373 50.0217 133.215 49.9068C132.309 49.251 131.569 48.7154 131.901 46.92C132.178 45.3735 132.789 43.0335 133.367 40.8178L133.367 40.8177C134.105 37.9905 134.79 35.3658 134.661 34.85L134.728 34.8522C135.696 34.8822 138.258 34.9617 137.301 37.96C139.091 35 140.851 34.01 141.891 34.12C143.501 34.2801 143.871 35.2701 143.601 37.0401C145.441 34.1901 147.321 33.22 148.721 33.79C150.051 34.3101 150.461 35.16 149.021 39.82C147.351 45.26 147.051 47.11 148.301 47.14C149.242 47.1583 151.024 45.343 152.149 42.4703C152.208 42.0105 152.304 41.5207 152.441 41.0001C153.821 35.7301 157.941 32.2301 160.681 32.6501C164.881 33.2701 161.991 41.1701 155.331 42.7101C155.301 44.5901 156.081 45.5801 157.231 45.8901C159.351 46.4701 163.321 43.1301 163.931 40.2001L163.971 40.2044C164.335 40.2432 165.024 40.3166 164.311 42.0901C162.931 45.4501 159.471 48.4201 155.951 48.2401C154.379 48.1604 152.771 47.1829 152.25 45.0853ZM155.481 41.2201L155.501 41.1401C156.051 38.2101 158.011 35.1001 159.461 34.3901C161.421 34.8501 159.001 39.9101 155.481 41.2201ZM184.931 43.5499C183.651 43.6699 183.261 41.2999 184.091 38.2599C185.191 34.1499 187.041 32.0999 187.881 32.0199C189.271 31.8999 189.581 34.0299 188.731 37.6199C187.891 41.1499 185.931 43.4599 184.931 43.5499Z" fill="white"/>
</svg>
