<svg width="644" height="320" viewBox="0 0 644 320" fill="none" xmlns="http://www.w3.org/2000/svg">
<g filter="url(#filter0_ddd)">
<path fill-rule="evenodd" clip-rule="evenodd" d="M579.043 70.438C589.652 72.021 597.754 81.4094 597.488 91.8086C597.488 91.9791 597.475 92.1617 597.462 92.3565L597.243 95.6687C593.216 156.176 592.159 171.653 591.965 173.967C591.101 184.646 582.585 193.973 572.146 195.654L556.026 198.016L552.558 219.801C549.65 236.508 538.994 246.091 523.311 246.091H375.701L373.998 248.246C369.121 254.408 362.294 257.963 355.287 258H283.35C276.293 257.963 269.444 254.408 264.541 248.246L262.838 246.091H115.617C100.726 246.091 88.6698 235.119 86.3096 219.411L82.818 197.298L71.1873 195.666C60.7125 193.973 52.1598 184.658 51.296 173.991C51.2473 173.382 46.1133 95.1938 46.016 92.8436C45.5658 80.2526 54.7025 72.0575 63.9486 70.4867L78.2801 67.9661L79.594 66.4926C84.7159 60.806 91.5897 57.2868 98.9501 56.6049C144.864 52.3552 178.613 51.8924 217.69 51.3445H218.152C224.405 51.2592 230.78 51.174 237.362 51.0644L239.978 51.0279L241.645 49.0187C246.17 43.5756 252.618 40.1051 259.322 39.4719C277.425 37.8524 297.997 37 318.813 37C339.629 37 360.165 37.8524 378.197 39.4598C385.095 40.1051 391.383 43.4294 395.886 48.8117L397.551 50.7965L400.131 50.8452C409.779 51.0401 419.377 51.174 427.857 51.2836L428.197 51.2958C465.9 51.8316 504.879 52.3917 548.251 56.6171C555.722 57.3477 562.961 61.1957 568.106 67.1867L569.409 68.6967L579.043 70.438Z" fill="#090909"/>
<path fill-rule="evenodd" clip-rule="evenodd" d="M585.199 91.5041C585.309 87.0961 581.403 83.3334 577.23 82.6149C571.257 81.5799 567.51 80.7275 561.731 79.8264C559.152 74.0302 553.543 69.4882 547.059 68.855C489.903 63.2901 441.483 64.179 389.51 62.9248C388.269 57.1163 383.209 52.2821 377.137 51.7098C341.065 48.5072 296.574 48.5072 260.502 51.7098C254.334 52.2943 249.212 57.2625 248.08 63.1805C195.548 64.179 156.933 63.5823 100.081 68.855C93.816 69.4395 88.39 73.7136 85.7013 79.2054C78.5355 80.3013 73.1947 81.4216 66.0289 82.6149C62.1966 83.2603 58.0845 86.2802 58.2914 92.4296L59.4715 110.598H75.5305C76.5281 110.598 77.3311 111.414 77.3311 112.424V117.892C77.3311 118.902 76.5281 119.718 75.5305 119.718H60.0311L61.7587 147.932H77.3189C78.3044 147.932 79.1195 148.748 79.1195 149.747V155.226C79.1195 156.225 78.3044 157.041 77.3189 157.041H62.3183L62.7806 164.505C63.0239 167.001 63.2916 169.9 63.5471 172.968C63.9485 177.985 68.2431 182.734 73.0852 183.515C79.2898 184.488 87.3193 185.425 93.524 186.326L98.4755 217.61C99.899 227.107 106.7 233.792 115.617 233.792H270.892C272.084 239.515 277.193 245.665 283.313 245.701H355.227C361.345 245.665 366.467 239.515 367.66 233.792H523.311C534.759 233.792 538.92 226.51 540.454 217.61L545.32 187.093C553.3 185.95 562.193 184.768 570.174 183.515C575.016 182.734 579.311 177.985 579.712 172.968C580.103 168.207 580.88 159.902 581.148 157.041H564.724C563.727 157.041 562.923 156.225 562.923 155.226V149.747C562.923 148.748 563.727 147.932 564.724 147.932H581.744L583.29 119.718H566.513C565.515 119.718 564.712 118.902 564.712 117.892V112.424C564.712 111.414 565.515 110.598 566.513 110.598H583.861L585.199 91.5041Z" fill="white"/>
<path fill-rule="evenodd" clip-rule="evenodd" d="M287.474 200.33V200.391C287.474 203.46 285.321 206.077 282.073 206.077C278.849 206.077 276.622 203.398 276.622 200.33V200.269C276.622 197.188 278.788 194.582 282.012 194.582C285.26 194.582 287.474 197.249 287.474 200.33ZM293.496 200.33V200.269C293.496 194.156 288.63 189.25 282.073 189.25C275.503 189.25 270.576 194.217 270.576 200.33V200.391C270.576 206.505 275.442 211.411 282.012 211.411C288.569 211.411 293.496 206.443 293.496 200.33ZM400.617 206.602L396.176 203.435C394.899 204.983 393.597 206.016 391.372 206.016C388.391 206.016 386.298 203.52 386.298 200.33V200.269C386.298 197.165 388.391 194.643 391.372 194.643C393.415 194.643 394.814 195.617 396.03 197.139L400.471 193.693C398.585 191.076 395.788 189.25 391.433 189.25C384.997 189.25 380.215 194.121 380.215 200.33V200.391C380.215 206.747 385.105 211.411 391.188 211.411C395.909 211.411 398.609 209.365 400.617 206.602ZM505.975 196.53L508.347 202.582H503.578L505.975 196.53ZM517.934 210.984L508.87 189.528H503.177L494.126 210.984H500.33L501.838 207.174H510.05L511.608 210.984H517.934ZM489.612 210.985V189.675H483.383L478.296 197.919L473.223 189.675H466.994V210.985H472.761V198.808L478.176 207.088H478.296L483.748 198.747V210.985H489.612ZM461.544 205.956V210.985H444.269V189.675H461.386V194.704H450.108V197.918H460.328V202.582H450.108V205.956H461.544ZM438.065 210.985V189.675H432.224V200.939L423.466 189.675H417.965V210.985H423.794V199.295L432.894 210.985H438.065ZM405.702 210.985H411.627V189.675H405.702V210.985ZM363.426 205.956V210.985H346.15V189.675H363.268V194.704H351.991V197.918H362.209V202.582H351.991V205.956H363.426ZM340.858 204.409V204.348C340.858 200.354 337.817 198.771 332.914 197.712C329.97 197.042 329.24 196.616 329.24 195.643V195.581C329.24 194.826 329.945 194.217 331.369 194.217C333.254 194.217 335.383 194.947 337.33 196.311L340.275 192.147C337.963 190.284 335.14 189.31 331.527 189.31C326.417 189.31 323.278 192.171 323.278 196.129V196.19C323.278 200.573 326.782 201.852 331.308 202.887C334.192 203.558 334.897 204.044 334.897 204.92V204.983C334.897 205.896 334.045 206.443 332.464 206.443C330.006 206.443 327.658 205.566 325.565 203.885L322.281 207.82C324.896 210.158 328.485 211.35 332.245 211.35C337.415 211.35 340.858 208.756 340.858 204.409ZM317.95 189.675V201.487C317.95 208.367 314.032 211.374 307.986 211.374C301.927 211.374 298.131 208.306 298.131 201.633V189.675H304.117V201.511C304.117 204.592 305.674 206.053 308.047 206.053C310.419 206.053 311.964 204.653 311.964 201.669V189.675H317.95ZM265.697 189.675V210.985H259.809V202.887H252.229V210.985H246.329V189.675H252.229V197.651H259.809V189.675H265.697ZM240.696 194.85V189.675H222.033V194.85H228.42V210.985H234.321V194.85H240.696ZM216.887 189.675V194.85H205.755V198.467H215.829V203.374H205.755V210.985H199.855V189.675H216.887ZM183.406 196.53L185.779 202.582H180.997L183.406 196.53ZM195.353 210.984L186.29 189.528H180.608L171.544 210.984H177.749L179.27 207.174H187.482L189.027 210.984H195.353ZM162.262 197.383V197.309C162.262 195.642 161.045 194.79 159.074 194.79H155.205V199.904H159.099C161.106 199.904 162.262 198.93 162.262 197.383ZM163.819 203.557L168.892 210.985H162.079L157.797 204.531H157.736H155.205V210.985H149.305V189.675H159.378C162.627 189.675 164.877 190.528 166.301 191.989C167.554 193.207 168.187 194.85 168.187 196.945V197.005C168.187 200.269 166.459 202.425 163.819 203.557ZM144.439 200.27V200.209C144.439 194.058 140.035 189.675 132.431 189.675H124.219V210.984H132.309C139.974 210.984 144.439 206.418 144.439 200.27ZM138.392 200.293V200.354C138.392 203.8 136.044 205.749 132.516 205.749H130.119V194.911H132.516C136.044 194.911 138.392 196.883 138.392 200.293Z" fill="#090909"/>
<path fill-rule="evenodd" clip-rule="evenodd" d="M182.093 165.772V164.859V139.007C182.093 106.409 163.479 88.0341 140.619 88.0341C117.747 88.0341 99.1456 106.409 99.1456 139.007V164.859V165.772C99.1456 166.332 99.5227 166.722 100.082 166.722H121.628C122.2 166.722 122.577 166.332 122.577 165.772V164.859V158.356V157.979C122.577 157.406 122.954 157.029 123.526 157.029L157.579 157.041V157.053H157.713C158.284 157.053 158.661 157.443 158.661 158.003V158.015V165.808C158.698 166.332 159.063 166.685 159.598 166.685L181.144 166.722C181.716 166.722 182.093 166.332 182.093 165.772ZM158.649 132.017L158.661 138.471C158.661 139.031 158.284 139.421 157.713 139.421H123.684V139.384H123.526C122.979 139.384 122.614 139.019 122.589 138.483H122.577V138.422V132.017C122.577 120.133 130.668 110.464 140.619 110.464C150.559 110.464 158.649 120.133 158.649 132.017ZM343.523 165.772V164.859V139.007C343.523 106.409 324.921 88.0341 302.049 88.0341C279.177 88.0341 260.575 106.409 260.575 139.007V164.859V165.772C260.575 166.332 260.964 166.722 261.524 166.722H283.07C283.642 166.722 284.019 166.332 284.019 165.772V164.859V158.356V157.979C284.019 157.406 284.396 157.029 284.956 157.029L319.02 157.041V157.053H319.154C319.726 157.053 320.103 157.443 320.103 158.003V158.015V165.808C320.14 166.332 320.493 166.685 321.028 166.685L342.586 166.722C343.146 166.722 343.523 166.332 343.523 165.772ZM320.091 132.017L320.103 138.471C320.103 139.031 319.726 139.421 319.154 139.421H285.114V139.384H284.956C284.42 139.384 284.055 139.019 284.031 138.483H284.019V138.422V132.017C284.019 120.133 292.109 110.464 302.049 110.464C312.001 110.464 320.091 120.133 320.091 132.017ZM548.348 127.828C548.348 139.567 543.8 150.051 535.539 157.333C527.873 164.091 517.351 167.659 505.111 167.659C492.482 167.659 482.19 164.25 474.525 157.491C466.351 150.319 461.861 139.786 461.861 127.828C461.861 116.077 466.386 105.63 474.598 98.3964C482.216 91.6991 492.726 88.1556 504.953 88.1556C517.179 88.1556 527.703 91.6747 535.393 98.3477C543.738 105.593 548.348 116.065 548.348 127.828ZM505.111 145.765C517.594 145.765 526.304 138.386 526.304 127.804C526.304 117.526 517.325 110.05 504.953 110.05C492.543 110.05 483.894 117.344 483.894 127.804C483.894 140.212 494.551 145.765 505.111 145.765ZM451.411 164.98V165.76C451.411 166.332 451.021 166.709 450.462 166.709H428.891C428.32 166.709 427.942 166.332 427.942 165.76V164.98H427.918V122.701C427.918 122.701 415.8 125.38 412.467 149.784H412.431C412.333 150.235 412.017 150.526 411.518 150.526H397.965C397.479 150.526 397.138 150.235 397.053 149.784H397.029C393.683 125.38 381.566 122.701 381.566 122.701V165.2H381.554V165.76C381.554 166.332 381.176 166.709 380.605 166.709H359.034C358.475 166.709 358.085 166.332 358.085 165.76V165.2H358.073V91.1143H358.085V90.3959C358.085 89.8358 358.475 89.4583 359.034 89.4583H359.886H363.341H363.486C380.361 89.4583 397.211 100.734 404.462 118.184L404.742 118.854L405.022 118.184C412.273 100.734 429.122 89.4583 445.997 89.4583H446.167H449.951H450.462C451.033 89.4583 451.411 89.8358 451.411 90.3959V108.442V108.454V164.98ZM251.634 148.553V148.65L247.096 165.832L246.986 166.223C246.84 166.514 246.548 166.709 246.159 166.709H195.476C194.904 166.709 194.515 166.332 194.515 165.772V92.1989V91.2966C194.515 90.7377 194.904 90.348 195.476 90.348H218.08C218.64 90.348 219.017 90.7377 219.017 91.2966V92.1989H219.029L219.005 146.922C219.005 147.493 219.394 147.871 219.966 147.871H250.952C251.366 147.871 251.634 148.151 251.634 148.553Z" fill="#090909"/>
</g>
<defs>
<filter id="filter0_ddd" x="0" y="0" width="644" height="320" filterUnits="userSpaceOnUse" color-interpolation-filters="sRGB">
<feFlood flood-opacity="0" result="BackgroundImageFix"/>
<feColorMatrix in="SourceAlpha" type="matrix" values="0 0 0 0 0 0 0 0 0 0 0 0 0 0 0 0 0 0 127 0"/>
<feOffset dy="11"/>
<feGaussianBlur stdDeviation="7.5"/>
<feColorMatrix type="matrix" values="0 0 0 0 0.0352941 0 0 0 0 0.0352941 0 0 0 0 0.0352941 0 0 0 0.2 0"/>
<feBlend mode="normal" in2="BackgroundImageFix" result="effect1_dropShadow"/>
<feColorMatrix in="SourceAlpha" type="matrix" values="0 0 0 0 0 0 0 0 0 0 0 0 0 0 0 0 0 0 127 0"/>
<feOffset dy="9"/>
<feGaussianBlur stdDeviation="23"/>
<feColorMatrix type="matrix" values="0 0 0 0 0.0352941 0 0 0 0 0.0352941 0 0 0 0 0.0352941 0 0 0 0.12 0"/>
<feBlend mode="normal" in2="effect1_dropShadow" result="effect2_dropShadow"/>
<feColorMatrix in="SourceAlpha" type="matrix" values="0 0 0 0 0 0 0 0 0 0 0 0 0 0 0 0 0 0 127 0"/>
<feOffset dy="24"/>
<feGaussianBlur stdDeviation="19"/>
<feColorMatrix type="matrix" values="0 0 0 0 0.0352941 0 0 0 0 0.0352941 0 0 0 0 0.0352941 0 0 0 0.14 0"/>
<feBlend mode="normal" in2="effect2_dropShadow" result="effect3_dropShadow"/>
<feBlend mode="normal" in="SourceGraphic" in2="effect3_dropShadow" result="shape"/>
</filter>
</defs>
</svg>
